<?xml version="1.0" standalone="no"?>
<!DOCTYPE svg PUBLIC "-//W3C//DTD SVG 20010904//EN"
 "http://www.w3.org/TR/2001/REC-SVG-20010904/DTD/svg10.dtd">
<svg version="1.0" xmlns="http://www.w3.org/2000/svg"
 width="500.000000pt" height="500.000000pt" viewBox="0 0 500.000000 500.000000"
 preserveAspectRatio="xMidYMid meet">
<metadata>
Created by potrace 1.14, written by Peter Selinger 2001-2017
</metadata>
<g transform="translate(0.000000,500.000000) scale(0.100000,-0.100000)"
fill="#000000" stroke="none">
<path d="M932 3880 l-263 -5 842 -843 c462 -464 839 -845 837 -846 -9 -7 -225
-106 -231 -106 -4 0 -7 51 -7 113 l0 114 -268 261 -269 261 -6 -157 c-9 -214
-9 -1552 0 -1552 4 0 299 124 656 276 356 151 654 274 661 272 7 -2 136 -130
286 -285 l274 -283 444 0 444 0 -298 305 c-165 168 -643 651 -1063 1075 l-763
770 354 0 c323 0 362 -2 434 -20 152 -39 236 -97 285 -195 30 -62 31 -68 27
-167 -3 -86 -8 -113 -31 -163 -39 -83 -71 -121 -137 -164 l-58 -38 248 -259
c137 -142 255 -260 262 -262 21 -4 196 170 265 264 101 138 172 292 204 449
18 86 15 284 -5 374 -40 181 -141 357 -286 501 -149 149 -294 235 -488 288
l-97 27 -995 0 c-547 1 -1113 -2 -1258 -5z"/>
</g>
</svg>
